<svg width="332" height="219" viewBox="0 0 332 219" fill="none" xmlns="http://www.w3.org/2000/svg">
<path d="M28.0607 188.6L28.0007 196.4C28.0007 196.76 28.1207 197.08 28.3607 197.36C28.6007 197.6 28.9207 197.72 29.3207 197.72C31.7607 197.72 33.7607 197.24 35.3207 196.28C36.9207 195.32 37.7207 193.82 37.7207 191.78C37.7207 189.7 36.9007 188.26 35.2607 187.46C33.9407 186.82 32.5007 186.5 30.9407 186.5C30.5407 186.5 30.1407 186.52 29.7407 186.56C28.6207 186.64 28.0607 187.32 28.0607 188.6ZM28.0007 172.1L28.0607 177.02C28.0607 177.78 28.5207 178.16 29.4407 178.16C33.4807 178.16 35.5007 177.02 35.5007 174.74C35.5007 172.1 33.7007 170.78 30.1007 170.78C29.8607 170.78 29.6407 170.78 29.4407 170.78C28.4807 170.78 28.0007 171.22 28.0007 172.1ZM8.3807 164.06C13.3407 163.9 19.5407 163.82 26.9807 163.82C34.4207 163.82 39.5607 163.9 42.4007 164.06C45.2807 164.18 47.8207 165.28 50.0207 167.36C52.2207 169.44 53.3207 171.84 53.3207 174.56C53.3207 177.88 51.8807 180.32 49.0007 181.88C48.7207 182.04 48.5807 182.24 48.5807 182.48C48.5807 182.68 48.7207 182.82 49.0007 182.9C51.0807 183.46 52.8207 184.66 54.2207 186.5C55.6607 188.34 56.3807 190.52 56.3807 193.04C56.3807 196.2 55.1607 199.06 52.7207 201.62C50.2807 204.18 46.5407 205.58 41.5007 205.82C36.4607 206.02 32.8207 206.12 30.5807 206.12C28.3407 206.12 20.8607 206.06 8.1407 205.94C6.9807 205.94 6.0407 205.58 5.3207 204.86C4.6007 204.1 4.1807 203.24 4.0607 202.28C3.7407 198.76 3.5807 193.64 3.5807 186.92C3.5807 180.16 3.7207 174.4 4.0007 169.64C4.1207 167.68 4.4607 166.28 5.0207 165.44C5.5807 164.56 6.7007 164.1 8.3807 164.06ZM73.8787 191C73.8787 195.48 75.0587 197.72 77.4187 197.72C79.7787 197.72 80.9587 195.48 80.9587 191C80.9587 188.96 80.7187 187.4 80.2387 186.32C79.7587 185.2 78.8187 184.64 77.4187 184.64C76.0187 184.64 75.0787 185.2 74.5987 186.32C74.1187 187.4 73.8787 188.96 73.8787 191ZM99.7987 191C99.7987 201.88 92.3387 207.32 77.4187 207.32C62.4987 207.32 55.0387 201.88 55.0387 191C55.0387 185.84 56.9387 181.84 60.7387 179C64.5387 176.16 70.0987 174.74 77.4187 174.74C84.7387 174.74 90.2987 176.16 94.0987 179C97.8987 181.84 99.7987 185.84 99.7987 191ZM119.489 184.64C117.129 184.64 115.949 186.6 115.949 190.52C115.949 194.4 117.129 196.34 119.489 196.34C120.409 196.34 121.229 196.04 121.949 195.44C122.709 194.8 123.089 193.92 123.089 192.8V188.18C123.089 187.06 122.709 186.2 121.949 185.6C121.229 184.96 120.409 184.64 119.489 184.64ZM139.289 205.88L132.929 206C130.609 206 129.049 205.96 128.249 205.88C125.769 205.72 124.529 204.32 124.529 201.68C123.049 203.36 121.129 204.72 118.769 205.76C116.449 206.8 114.309 207.32 112.349 207.32C108.349 207.32 105.049 206 102.449 203.36C99.889 200.72 98.609 196.64 98.609 191.12C98.609 184.24 100.949 179.44 105.629 176.72C108.109 175.24 111.009 174.5 114.329 174.5C117.649 174.5 120.469 175.24 122.789 176.72C123.549 177.24 123.969 177.08 124.049 176.24C124.129 175.36 124.169 174.08 124.169 172.4V167.42C124.169 166.62 124.189 165.82 124.229 165.02C124.269 164.18 124.509 163.5 124.949 162.98C125.389 162.42 126.289 162.14 127.649 162.14H139.169C140.489 162.14 141.369 162.46 141.809 163.1C142.289 163.74 142.549 164.72 142.589 166.04C142.709 171.72 142.769 177.52 142.769 183.44C142.769 183.44 142.729 189.98 142.649 203.06C142.649 203.86 142.269 204.54 141.509 205.1C140.789 205.62 140.049 205.88 139.289 205.88ZM147.699 208.34C152.979 208.34 155.619 207.56 155.619 206C155.619 205.48 155.299 204.7 154.659 203.66C151.739 199.1 147.419 191.24 141.699 180.08C141.259 179.16 141.039 178.44 141.039 177.92C141.039 176.28 141.859 175.46 143.499 175.46H156.699C157.979 175.46 158.939 175.66 159.579 176.06C160.259 176.46 160.899 177.22 161.499 178.34L167.079 188.78C167.319 189.26 167.659 189.5 168.099 189.5C168.539 189.5 168.879 189.26 169.119 188.78L174.879 176.84C175.239 176.04 175.659 175.6 176.139 175.52C176.299 175.52 176.599 175.5 177.039 175.46H183.339C183.899 175.46 184.299 175.72 184.539 176.24C184.619 176.48 184.659 176.76 184.659 177.08C184.659 177.36 184.499 177.8 184.179 178.4C183.899 178.96 182.399 182.14 179.679 187.94C176.959 193.74 174.879 198 173.439 200.72C172.039 203.44 171.039 205.3 170.439 206.3C169.879 207.3 169.119 208.48 168.159 209.84C167.199 211.24 166.279 212.28 165.399 212.96C164.519 213.68 163.419 214.4 162.099 215.12C159.779 216.36 156.799 216.98 153.159 216.98C149.559 216.98 147.179 216.66 146.019 216.02C144.859 215.42 144.279 214.08 144.279 212C144.279 211 144.459 210.14 144.819 209.42C145.219 208.7 145.739 208.34 146.379 208.34H147.699ZM204.434 167.12C205.914 168.96 207.614 171.34 209.534 174.26C211.454 177.14 212.794 179.06 213.554 180.02C214.314 180.98 214.914 181.46 215.354 181.46C215.834 181.46 216.254 181.2 216.614 180.68C216.974 180.16 218.294 178.16 220.574 174.68C222.854 171.2 224.734 168.56 226.214 166.76C227.694 164.92 228.874 163.98 229.754 163.94C230.634 163.9 231.774 163.88 233.174 163.88C234.574 163.88 236.214 163.92 238.094 164C239.974 164.08 241.214 164.58 241.814 165.5C242.454 166.38 242.834 167.64 242.954 169.28C243.194 173.48 243.314 179.06 243.314 186.02C243.314 192.94 243.134 198.4 242.774 202.4C242.694 203.36 242.334 204.22 241.694 204.98C241.054 205.74 240.174 206.12 239.054 206.12C236.614 206.16 233.894 206.18 230.894 206.18C227.934 206.18 225.574 206.12 223.814 206C223.174 205.96 222.594 205.72 222.074 205.28C221.594 204.8 221.334 204.18 221.294 203.42L220.934 193.52C220.894 192.56 220.674 192.02 220.274 191.9C219.914 191.78 219.574 192.04 219.254 192.68C217.134 196.44 214.494 200.64 211.334 205.28C210.574 206.44 209.574 207.02 208.334 207.02C207.094 207.02 206.074 206.44 205.274 205.28C203.874 203.28 201.494 199.04 198.134 192.56C197.934 192.16 197.694 191.92 197.414 191.84C197.174 191.76 196.954 191.86 196.754 192.14C196.554 192.42 196.454 192.88 196.454 193.52L196.154 203.42C196.114 204.18 195.774 204.8 195.134 205.28C194.494 205.72 193.754 205.96 192.914 206H186.974C185.894 205.96 185.014 205.58 184.334 204.86C183.694 204.14 183.314 203.32 183.194 202.4C182.874 198.84 182.714 193.32 182.714 185.84C182.714 178.32 182.814 172.8 183.014 169.28C183.134 167.6 183.514 166.3 184.154 165.38C184.794 164.46 185.934 164 187.574 164C195.974 164 200.514 164.06 201.194 164.18C201.874 164.3 202.954 165.28 204.434 167.12ZM265.644 174.5C278.684 174.5 285.264 178.74 285.384 187.22C285.464 190.82 285.504 194.12 285.504 197.12C285.504 200.12 285.484 202.14 285.444 203.18C285.404 204.22 285.124 204.98 284.604 205.46C284.124 205.9 283.164 206.12 281.724 206.12H269.004C267.724 206.12 266.844 205.9 266.364 205.46C265.884 204.98 265.624 204.28 265.584 203.36C265.584 203.32 265.564 203.26 265.524 203.18C265.524 203.06 265.524 202.96 265.524 202.88C262.884 205.6 259.284 206.96 254.724 206.96C251.564 206.96 248.864 206.18 246.624 204.62C244.424 203.02 243.324 200.84 243.324 198.08C243.324 195.28 244.104 193.06 245.664 191.42C247.264 189.74 249.144 188.6 251.304 188C253.504 187.4 255.844 187.1 258.324 187.1C260.844 187.1 263.304 187.34 265.704 187.82V187.58C265.704 185.58 265.304 184.14 264.504 183.26C263.744 182.38 262.484 181.94 260.724 181.94C259.004 181.94 257.564 182.1 256.404 182.42C255.244 182.7 254.364 183 253.764 183.32C252.124 184.28 250.984 184.76 250.344 184.76C249.704 184.76 249.124 184.46 248.604 183.86C248.124 183.26 247.884 182.34 247.884 181.1C247.884 179.82 248.104 178.94 248.544 178.46C249.024 177.98 249.764 177.5 250.764 177.02C254.244 175.34 259.204 174.5 265.644 174.5ZM262.824 199.04C264.584 199.04 265.484 198.7 265.524 198.02C265.604 196.7 265.644 194.96 265.644 192.8C265.644 191.96 265.004 191.54 263.724 191.54C262.444 191.54 261.404 191.86 260.604 192.5C259.804 193.1 259.404 194 259.404 195.2C259.404 196.4 259.724 197.34 260.364 198.02C261.044 198.7 261.864 199.04 262.824 199.04ZM309.428 196.88C311.788 196.88 312.968 194.94 312.968 191.06C312.968 187.14 311.788 185.18 309.428 185.18C308.508 185.18 307.668 185.5 306.908 186.14C306.188 186.74 305.828 187.6 305.828 188.72V193.34C305.828 194.46 306.188 195.34 306.908 195.98C307.668 196.58 308.508 196.88 309.428 196.88ZM290.228 175.46L301.268 175.52C302.228 175.52 303.068 175.82 303.788 176.42C304.508 176.98 304.888 177.8 304.928 178.88C306.488 177.48 308.368 176.42 310.568 175.7C312.808 174.98 315.008 174.62 317.168 174.62C320.928 174.62 324.008 175.96 326.408 178.64C328.808 181.28 330.008 185.3 330.008 190.7C330.008 193.78 329.588 196.42 328.748 198.62C327.908 200.78 326.768 202.44 325.328 203.6C322.568 205.72 319.268 206.78 315.428 206.78C311.628 206.78 308.648 205.54 306.488 203.06C306.208 202.78 305.988 202.7 305.828 202.82C305.708 202.94 305.648 203.12 305.648 203.36C305.648 206.2 305.528 209.3 305.288 212.66C305.208 213.98 304.948 214.92 304.508 215.48C304.068 216.08 303.168 216.38 301.808 216.38H290.288C288.968 216.38 288.068 216.06 287.588 215.42C287.148 214.78 286.908 213.8 286.868 212.48C286.788 208.68 286.748 203.82 286.748 197.9L286.868 178.28C286.868 177.48 287.228 176.82 287.948 176.3C288.708 175.74 289.468 175.46 290.228 175.46Z" fill="white"/>
<path d="M222 84.5C222 115.704 196.704 141 165.5 141C134.296 141 109 115.704 109 84.5C109 53.2959 134.296 28 165.5 28C196.704 28 222 53.2959 222 84.5Z" stroke="white" stroke-width="10"/>
<path d="M193.37 85.514C197.199 80.5124 216.718 78.4946 221.479 81.0541L221.813 83.8134C221.93 85.1094 221.993 86.4203 221.999 87.7438C222 87.8181 222 87.8925 222 87.9668C222 88.8298 221.976 89.6874 221.929 90.539C221.866 91.6583 221.764 92.7674 221.622 93.8649C221.461 95.1105 221.25 96.3414 220.991 97.5554C220.684 98.9922 220.309 100.406 219.87 101.792C219.502 102.953 219.09 104.095 218.634 105.217C217.849 107.149 216.936 109.021 215.905 110.822C215.581 111.387 215.246 111.945 214.899 112.496C213.978 113.961 212.976 115.375 211.9 116.733H211.548C195.554 116.033 187.891 112.19 175.646 101.569C180.581 110.211 184.682 113.567 194.506 116.733C161.62 118.532 140.654 110.935 137.927 103.353C132.929 85.514 149.289 55.8562 159.514 52.2884C159.514 52.2884 173.374 49.3895 179.736 52.2884C186.099 55.1873 192.325 66.0777 191.098 68.1207C191.098 68.1207 176.973 74.0386 169.739 69.9046C166.158 67.8587 162.468 62.323 162.468 62.323C164.205 73.6876 162.847 80.0859 157.241 91.5347C183.372 73.6955 189.507 89.9738 203.368 97.3325C196.197 90.7679 192.679 87.3871 193.37 85.514Z" fill="white"/>
<path d="M130 16.2693L136.668 32C157.795 22.6248 170.56 22.3031 195.231 32L199 16.2693C199 2.57689 130 2.57691 130 16.2693Z" stroke="white" stroke-width="12"/>
</svg>
