<svg width="390" height="73" viewBox="0 0 390 73" fill="none" xmlns="http://www.w3.org/2000/svg">
<path d="M86.0607 42.6L86.0007 50.4C86.0007 50.76 86.1207 51.08 86.3607 51.36C86.6007 51.6 86.9207 51.72 87.3207 51.72C89.7607 51.72 91.7607 51.24 93.3207 50.28C94.9207 49.32 95.7207 47.82 95.7207 45.78C95.7207 43.7 94.9007 42.26 93.2607 41.46C91.9407 40.82 90.5007 40.5 88.9407 40.5C88.5407 40.5 88.1407 40.52 87.7407 40.56C86.6207 40.64 86.0607 41.32 86.0607 42.6ZM86.0007 26.1L86.0607 31.02C86.0607 31.78 86.5207 32.16 87.4407 32.16C91.4807 32.16 93.5007 31.02 93.5007 28.74C93.5007 26.1 91.7007 24.78 88.1007 24.78C87.8607 24.78 87.6407 24.78 87.4407 24.78C86.4807 24.78 86.0007 25.22 86.0007 26.1ZM66.3807 18.06C71.3407 17.9 77.5407 17.82 84.9807 17.82C92.4207 17.82 97.5607 17.9 100.401 18.06C103.281 18.18 105.821 19.28 108.021 21.36C110.221 23.44 111.321 25.84 111.321 28.56C111.321 31.88 109.881 34.32 107.001 35.88C106.721 36.04 106.581 36.24 106.581 36.48C106.581 36.68 106.721 36.82 107.001 36.9C109.081 37.46 110.821 38.66 112.221 40.5C113.661 42.34 114.381 44.52 114.381 47.04C114.381 50.2 113.161 53.06 110.721 55.62C108.281 58.18 104.541 59.58 99.5007 59.82C94.4607 60.02 90.8207 60.12 88.5807 60.12C86.3407 60.12 78.8607 60.06 66.1407 59.94C64.9807 59.94 64.0407 59.58 63.3207 58.86C62.6007 58.1 62.1807 57.24 62.0607 56.28C61.7407 52.76 61.5807 47.64 61.5807 40.92C61.5807 34.16 61.7207 28.4 62.0007 23.64C62.1207 21.68 62.4607 20.28 63.0207 19.44C63.5807 18.56 64.7007 18.1 66.3807 18.06ZM131.879 45C131.879 49.48 133.059 51.72 135.419 51.72C137.779 51.72 138.959 49.48 138.959 45C138.959 42.96 138.719 41.4 138.239 40.32C137.759 39.2 136.819 38.64 135.419 38.64C134.019 38.64 133.079 39.2 132.599 40.32C132.119 41.4 131.879 42.96 131.879 45ZM157.799 45C157.799 55.88 150.339 61.32 135.419 61.32C120.499 61.32 113.039 55.88 113.039 45C113.039 39.84 114.939 35.84 118.739 33C122.539 30.16 128.099 28.74 135.419 28.74C142.739 28.74 148.299 30.16 152.099 33C155.899 35.84 157.799 39.84 157.799 45ZM177.489 38.64C175.129 38.64 173.949 40.6 173.949 44.52C173.949 48.4 175.129 50.34 177.489 50.34C178.409 50.34 179.229 50.04 179.949 49.44C180.709 48.8 181.089 47.92 181.089 46.8V42.18C181.089 41.06 180.709 40.2 179.949 39.6C179.229 38.96 178.409 38.64 177.489 38.64ZM197.289 59.88L190.929 60C188.609 60 187.049 59.96 186.249 59.88C183.769 59.72 182.529 58.32 182.529 55.68C181.049 57.36 179.129 58.72 176.769 59.76C174.449 60.8 172.309 61.32 170.349 61.32C166.349 61.32 163.049 60 160.449 57.36C157.889 54.72 156.609 50.64 156.609 45.12C156.609 38.24 158.949 33.44 163.629 30.72C166.109 29.24 169.009 28.5 172.329 28.5C175.649 28.5 178.469 29.24 180.789 30.72C181.549 31.24 181.969 31.08 182.049 30.24C182.129 29.36 182.169 28.08 182.169 26.4V21.42C182.169 20.62 182.189 19.82 182.229 19.02C182.269 18.18 182.509 17.5 182.949 16.98C183.389 16.42 184.289 16.14 185.649 16.14H197.169C198.489 16.14 199.369 16.46 199.809 17.1C200.289 17.74 200.549 18.72 200.589 20.04C200.709 25.72 200.769 31.52 200.769 37.44C200.769 37.44 200.729 43.98 200.649 57.06C200.649 57.86 200.269 58.54 199.509 59.1C198.789 59.62 198.049 59.88 197.289 59.88ZM205.699 62.34C210.979 62.34 213.619 61.56 213.619 60C213.619 59.48 213.299 58.7 212.659 57.66C209.739 53.1 205.419 45.24 199.699 34.08C199.259 33.16 199.039 32.44 199.039 31.92C199.039 30.28 199.859 29.46 201.499 29.46H214.699C215.979 29.46 216.939 29.66 217.579 30.06C218.259 30.46 218.899 31.22 219.499 32.34L225.079 42.78C225.319 43.26 225.659 43.5 226.099 43.5C226.539 43.5 226.879 43.26 227.119 42.78L232.879 30.84C233.239 30.04 233.659 29.6 234.139 29.52C234.299 29.52 234.599 29.5 235.039 29.46H241.339C241.899 29.46 242.299 29.72 242.539 30.24C242.619 30.48 242.659 30.76 242.659 31.08C242.659 31.36 242.499 31.8 242.179 32.4C241.899 32.96 240.399 36.14 237.679 41.94C234.959 47.74 232.879 52 231.439 54.72C230.039 57.44 229.039 59.3 228.439 60.3C227.879 61.3 227.119 62.48 226.159 63.84C225.199 65.24 224.279 66.28 223.399 66.96C222.519 67.68 221.419 68.4 220.099 69.12C217.779 70.36 214.799 70.98 211.159 70.98C207.559 70.98 205.179 70.66 204.019 70.02C202.859 69.42 202.279 68.08 202.279 66C202.279 65 202.459 64.14 202.819 63.42C203.219 62.7 203.739 62.34 204.379 62.34H205.699ZM262.434 21.12C263.914 22.96 265.614 25.34 267.534 28.26C269.454 31.14 270.794 33.06 271.554 34.02C272.314 34.98 272.914 35.46 273.354 35.46C273.834 35.46 274.254 35.2 274.614 34.68C274.974 34.16 276.294 32.16 278.574 28.68C280.854 25.2 282.734 22.56 284.214 20.76C285.694 18.92 286.874 17.98 287.754 17.94C288.634 17.9 289.774 17.88 291.174 17.88C292.574 17.88 294.214 17.92 296.094 18C297.974 18.08 299.214 18.58 299.814 19.5C300.454 20.38 300.834 21.64 300.954 23.28C301.194 27.48 301.314 33.06 301.314 40.02C301.314 46.94 301.134 52.4 300.774 56.4C300.694 57.36 300.334 58.22 299.694 58.98C299.054 59.74 298.174 60.12 297.054 60.12C294.614 60.16 291.894 60.18 288.894 60.18C285.934 60.18 283.574 60.12 281.814 60C281.174 59.96 280.594 59.72 280.074 59.28C279.594 58.8 279.334 58.18 279.294 57.42L278.934 47.52C278.894 46.56 278.674 46.02 278.274 45.9C277.914 45.78 277.574 46.04 277.254 46.68C275.134 50.44 272.494 54.64 269.334 59.28C268.574 60.44 267.574 61.02 266.334 61.02C265.094 61.02 264.074 60.44 263.274 59.28C261.874 57.28 259.494 53.04 256.134 46.56C255.934 46.16 255.694 45.92 255.414 45.84C255.174 45.76 254.954 45.86 254.754 46.14C254.554 46.42 254.454 46.88 254.454 47.52L254.154 57.42C254.114 58.18 253.774 58.8 253.134 59.28C252.494 59.72 251.754 59.96 250.914 60H244.974C243.894 59.96 243.014 59.58 242.334 58.86C241.694 58.14 241.314 57.32 241.194 56.4C240.874 52.84 240.714 47.32 240.714 39.84C240.714 32.32 240.814 26.8 241.014 23.28C241.134 21.6 241.514 20.3 242.154 19.38C242.794 18.46 243.934 18 245.574 18C253.974 18 258.514 18.06 259.194 18.18C259.874 18.3 260.954 19.28 262.434 21.12ZM323.644 28.5C336.684 28.5 343.264 32.74 343.384 41.22C343.464 44.82 343.504 48.12 343.504 51.12C343.504 54.12 343.484 56.14 343.444 57.18C343.404 58.22 343.124 58.98 342.604 59.46C342.124 59.9 341.164 60.12 339.724 60.12H327.004C325.724 60.12 324.844 59.9 324.364 59.46C323.884 58.98 323.624 58.28 323.584 57.36C323.584 57.32 323.564 57.26 323.524 57.18C323.524 57.06 323.524 56.96 323.524 56.88C320.884 59.6 317.284 60.96 312.724 60.96C309.564 60.96 306.864 60.18 304.624 58.62C302.424 57.02 301.324 54.84 301.324 52.08C301.324 49.28 302.104 47.06 303.664 45.42C305.264 43.74 307.144 42.6 309.304 42C311.504 41.4 313.844 41.1 316.324 41.1C318.844 41.1 321.304 41.34 323.704 41.82V41.58C323.704 39.58 323.304 38.14 322.504 37.26C321.744 36.38 320.484 35.94 318.724 35.94C317.004 35.94 315.564 36.1 314.404 36.42C313.244 36.7 312.364 37 311.764 37.32C310.124 38.28 308.984 38.76 308.344 38.76C307.704 38.76 307.124 38.46 306.604 37.86C306.124 37.26 305.884 36.34 305.884 35.1C305.884 33.82 306.104 32.94 306.544 32.46C307.024 31.98 307.764 31.5 308.764 31.02C312.244 29.34 317.204 28.5 323.644 28.5ZM320.824 53.04C322.584 53.04 323.484 52.7 323.524 52.02C323.604 50.7 323.644 48.96 323.644 46.8C323.644 45.96 323.004 45.54 321.724 45.54C320.444 45.54 319.404 45.86 318.604 46.5C317.804 47.1 317.404 48 317.404 49.2C317.404 50.4 317.724 51.34 318.364 52.02C319.044 52.7 319.864 53.04 320.824 53.04ZM367.428 50.88C369.788 50.88 370.968 48.94 370.968 45.06C370.968 41.14 369.788 39.18 367.428 39.18C366.508 39.18 365.668 39.5 364.908 40.14C364.188 40.74 363.828 41.6 363.828 42.72V47.34C363.828 48.46 364.188 49.34 364.908 49.98C365.668 50.58 366.508 50.88 367.428 50.88ZM348.228 29.46L359.268 29.52C360.228 29.52 361.068 29.82 361.788 30.42C362.508 30.98 362.888 31.8 362.928 32.88C364.488 31.48 366.368 30.42 368.568 29.7C370.808 28.98 373.008 28.62 375.168 28.62C378.928 28.62 382.008 29.96 384.408 32.64C386.808 35.28 388.008 39.3 388.008 44.7C388.008 47.78 387.588 50.42 386.748 52.62C385.908 54.78 384.768 56.44 383.328 57.6C380.568 59.72 377.268 60.78 373.428 60.78C369.628 60.78 366.648 59.54 364.488 57.06C364.208 56.78 363.988 56.7 363.828 56.82C363.708 56.94 363.648 57.12 363.648 57.36C363.648 60.2 363.528 63.3 363.288 66.66C363.208 67.98 362.948 68.92 362.508 69.48C362.068 70.08 361.168 70.38 359.808 70.38H348.288C346.968 70.38 346.068 70.06 345.588 69.42C345.148 68.78 344.908 67.8 344.868 66.48C344.788 62.68 344.748 57.82 344.748 51.9L344.868 32.28C344.868 31.48 345.228 30.82 345.948 30.3C346.708 29.74 347.468 29.46 348.228 29.46Z" fill="white"/>
<path d="M49.5 40C49.5 52.9787 38.9787 63.5 26 63.5C13.0213 63.5 2.5 52.9787 2.5 40C2.5 27.0213 13.0213 16.5 26 16.5C38.9787 16.5 49.5 27.0213 49.5 40Z" stroke="white" stroke-width="5"/>
<path d="M37.8743 40.6423C39.4959 38.5204 47.7627 37.6644 49.7795 38.7502L49.9209 39.9208C49.9705 40.4707 49.9971 41.0268 49.9998 41.5883L50 41.6829C50 42.049 49.9898 42.4128 49.9698 42.7741C49.9434 43.249 49.8999 43.7195 49.8399 44.1851C49.7718 44.7136 49.6823 45.2357 49.5725 45.7508C49.4424 46.3603 49.2837 46.9599 49.0978 47.5482C48.9422 48.0407 48.7674 48.5253 48.5744 49.0011C48.2419 49.8209 47.8552 50.6148 47.4184 51.3789C47.2814 51.6186 47.1394 51.8554 46.9927 52.0891C46.6023 52.7107 46.1781 53.3107 45.7224 53.8866H45.5731C38.7994 53.5899 35.5539 51.9592 30.3679 47.4536C32.4577 51.1198 34.1947 52.5435 38.3555 53.8866C24.4274 54.65 15.5476 51.4269 14.3928 48.2104C12.2756 40.6423 19.2046 28.0602 23.5352 26.5466C23.5352 26.5466 29.4056 25.3168 32.1002 26.5466C34.7947 27.7764 37.4318 32.3966 36.9119 33.2633C36.9119 33.2633 30.9297 35.774 27.8658 34.0202C26.3494 33.1522 24.7862 30.8037 24.7862 30.8037C25.5221 35.625 24.9472 38.3395 22.5728 43.1965C33.6399 35.6284 36.2383 42.5343 42.1087 45.6562C39.0716 42.8712 37.5816 41.437 37.8743 40.6423Z" fill="white"/>
<path d="M11 11.3447L13.8025 18C22.682 14.0336 28.0469 13.8975 38.416 18L40 11.3447C40 5.55176 11 5.55177 11 11.3447Z" stroke="white" stroke-width="7"/>
</svg>
