<svg width="279" height="570" viewBox="0 0 279 570" fill="none" xmlns="http://www.w3.org/2000/svg">
<path d="M154.795 3.86887C149.288 0.909549 139.223 0.150146 139.223 0.150146V304.156L174.319 411.301L186.637 468.709L196.399 512.869L198.258 529.835L192.215 540.062L198.258 548.429L194.307 569.347H241.488L216.619 529.835V416.647L214.527 397.588L212.9 351.104L200.815 306.48L186.637 264.877V252.093L184.545 233.732L196.863 187.248L215.689 223.273L232.191 261.623L237.537 286.724L232.656 296.5L234 308L232.656 321.82L221.5 333.5L252 346L260.5 330.5L261.5 308L272.5 320.5L278.5 319L267.5 293L257.525 286.724L255.898 279.519L241.256 221.879L235.445 198.637L232.656 167.26L230.332 150.526L207.09 102.647L188.729 97.0693L172.924 94.9775L161.303 90.5615L158.979 79.6378L163.627 66.3899L164.325 63.136L172.924 50.3529V35.9428H168.973L168.043 26.646C168.043 26.646 168.156 18.1828 165.719 13.6305C163.02 8.58641 159.835 6.57677 154.795 3.86887Z" fill="#FBE1D4"/>
<path d="M123.884 3.63645C129.317 0.769276 139.223 0.150146 139.223 0.150146V304.156L104.36 411.069L92.042 468.477L82.2804 512.636L80.421 529.603L86.464 539.83L80.421 548.197L84.3722 569.114H37.1909L62.0598 529.603V416.414L64.1516 397.356L65.7786 350.872L77.8644 306.247L92.042 264.644V251.861L94.1338 233.5L81.8156 187.016L62.9895 223.041L46.4877 261.39L41.142 286.492L46.4877 296.5L45 309L46.4877 322.5L55.4771 331.913L25.5 345.5L18.5 330.5L16 310.5L5 321.587L0.5 318.5L12 293.5L21.1539 286.492L22.7809 279.287L37.4233 221.646L43.2338 198.404L46.0229 167.028L48.3471 150.294L71.5891 102.415L89.9502 96.8369L105.755 94.7451L117.376 90.3291L119.7 79.4054L115.052 66.1574L114.354 62.9036L105.755 50.1205V35.7104H109.706L110.636 26.4136C110.636 26.4136 110.523 17.9504 112.96 13.3981C115.66 8.354 118.824 6.30658 123.884 3.63645Z" fill="#FBE1D4"/>
</svg>
