<svg width="707" height="610" viewBox="0 0 707 610" fill="none" xmlns="http://www.w3.org/2000/svg">
<path d="M187.795 24.8689C182.288 21.9095 172.223 21.1501 172.223 21.1501V325.156L207.319 432.301L219.637 489.709L229.399 533.869L231.258 550.835L225.215 561.062L231.258 569.429L227.307 590.347H274.488L249.619 550.835V437.647L247.527 418.588L245.9 372.104L233.815 327.48L219.637 285.877V273.093L217.545 254.732L229.863 208.248L248.689 244.273L265.191 282.623L270.537 307.724L265.656 317.5L267 329L265.656 342.82L254.5 354.5L285 367L293.5 351.5L294.5 329L305.5 341.5L311.5 340L300.5 314L290.525 307.724L288.898 300.519L274.256 242.879L268.445 219.637L265.656 188.26L263.332 171.526L240.09 123.647L221.729 118.069L205.924 115.978L194.303 111.562L191.979 100.638L196.627 87.3899L197.325 84.136L205.924 71.3529V56.9428H201.973L201.043 47.646C201.043 47.646 201.156 39.1828 198.719 34.6305C196.02 29.5864 192.835 27.5768 187.795 24.8689Z" fill="#FBE1D4"/>
<path d="M156.884 24.6364C162.317 21.7693 172.223 21.1501 172.223 21.1501V325.156L137.36 432.069L125.042 489.477L115.28 533.636L113.421 550.603L119.464 560.83L113.421 569.197L117.372 590.114H70.1909L95.0598 550.603V437.414L97.1516 418.356L98.7786 371.872L110.864 327.247L125.042 285.644V272.861L127.134 254.5L114.816 208.016L95.9895 244.041L79.4877 282.39L74.142 307.492L79.4877 317.5L78 330L79.4877 343.5L88.4771 352.913L58.5 366.5L51.5 351.5L49 331.5L38 342.587L33.5 339.5L45 314.5L54.1539 307.492L55.7809 300.287L70.4233 242.646L76.2338 219.404L79.0229 188.028L81.3471 171.294L104.589 123.415L122.95 117.837L138.755 115.745L150.376 111.329L152.7 100.405L148.052 87.1574L147.354 83.9036L138.755 71.1205V56.7104H142.706L143.636 47.4136C143.636 47.4136 143.523 38.9504 145.96 34.3981C148.66 29.354 151.824 27.3066 156.884 24.6364Z" fill="#FBE1D4"/>
<path d="M581.071 29.7174C575.464 26.7591 565.218 26 565.218 26V329.9L600.945 437.009L613.485 494.397L623.422 538.541L625.315 555.502L619.163 565.725L625.315 574.089L621.293 595H669.322L644.006 555.502V442.353L641.877 423.301L640.221 376.833L627.917 332.224L613.485 290.635V277.856L611.355 259.501L623.895 213.034L643.06 249.046L659.858 287.382L665.3 312.475L660.332 322.247L661.7 333.743L660.332 347.558L648.975 359.235L680.023 371.73L688.676 356.236L689.694 333.743L700.892 346.239L707 344.74L695.802 318.749L685.648 312.475L683.992 305.272L669.086 247.652L663.171 224.418L660.332 193.052L657.966 176.324L634.306 128.462L615.614 122.886L599.525 120.795L587.695 116.38L585.329 105.46L590.061 92.2168L590.771 88.9641L599.525 76.1854V61.7803H595.503L594.557 52.4867C594.557 52.4867 594.671 44.0264 592.191 39.4757C589.443 34.4333 586.201 32.4244 581.071 29.7174Z" fill="#FBE1D4"/>
<path d="M549.603 29.4851C555.134 26.6189 565.218 26 565.218 26V329.9L529.728 436.777L517.188 494.165L507.251 538.309L505.358 555.27L511.51 565.493L505.358 573.857L509.381 594.768H461.351L486.667 555.27V442.12L488.796 423.069L490.453 376.601L502.756 331.991L517.188 290.403V277.624L519.318 259.269L506.778 212.801L487.613 248.814L470.815 287.15L465.373 312.243L470.815 322.247L469.3 334.743L470.815 348.238L479.966 357.648L449.45 371.23L442.324 356.236L439.779 336.243L428.581 347.326L424 344.24L435.707 319.248L445.025 312.243L446.682 305.04L461.587 247.42L467.502 224.186L470.342 192.82L472.708 176.091L496.368 128.229L515.059 122.653L531.148 120.562L542.978 116.148L545.344 105.228L540.612 91.9845L539.902 88.7317L531.148 75.953V61.548H535.17L536.116 52.2544C536.116 52.2544 536.002 43.7941 538.482 39.2434C541.231 34.201 544.452 32.1543 549.603 29.4851Z" fill="#FBE1D4"/>
<path d="M219 204.5C221.349 212.711 223 226 223 226C224.833 219.833 226.952 216.21 228 208.5C229.4 198.2 227.5 189.167 226.5 180.5C222.724 185.386 220.01 187.593 214 190.5C214 190.5 217.403 198.918 219 204.5Z" fill="#1E8346"/>
<path d="M126.497 205C124.147 213.211 122.497 226.5 122.497 226.5C120.663 220.333 118.544 216.71 117.497 209C116.097 198.7 117.997 189.667 118.997 181C122.772 185.886 125.486 188.093 131.497 191C131.497 191 128.094 199.418 126.497 205Z" fill="#1E8346"/>
<path d="M233.5 325.5C216.017 322.781 212.62 313.792 211.5 292C184.5 382.5 205.5 440 226 405.5C246.502 422.264 246.5 376 244 363C241.24 346.507 239.094 338.087 233.5 325.5Z" fill="#1E8346"/>
<path d="M112.627 325.5C130.11 322.781 133.507 313.792 134.627 292C161.627 382.5 140.627 440 120.127 405.5C99.6253 422.264 99.6269 376 102.127 363C104.887 346.507 107.033 338.087 112.627 325.5Z" fill="#1E8346"/>
<path d="M202.5 293L211 285C191.405 344.305 193.193 372.273 201.5 415C190.076 372.966 187.913 347.823 202.5 293Z" fill="#1E8346"/>
<path d="M143.5 293L135 285C154.595 344.305 152.807 372.273 144.5 415C155.924 372.966 158.087 347.823 143.5 293Z" fill="#1E8346"/>
<path d="M189.5 319C183.147 325.977 179.646 327.871 173.5 328C174.891 338.149 178.586 351.321 190.5 388C188.44 372.927 188.135 358.429 189.5 319Z" fill="#1E8346"/>
<path d="M155 319C161.353 325.977 164.854 327.871 171 328C169.609 338.149 165.914 351.321 154 388C156.06 372.927 156.365 358.429 155 319Z" fill="#1E8346"/>
<path d="M244.5 418C253.69 445.607 254.159 471.84 249.5 534.5L241.5 467C239.052 443.69 239.422 432.627 244.5 418Z" fill="#1E8346"/>
<path d="M221 495C233 490.5 227 425.66 207.5 423.66C209.5 437 205 450.5 208.5 465C211.648 478.042 221 495 221 495Z" fill="#1E8346"/>
<path d="M220 498.5C225.372 515.985 227.11 524.209 229.5 538C232.669 519.143 232.423 507.77 229.5 486.5C227.515 492.179 225.902 495.075 220 498.5Z" fill="#1E8346"/>
<path d="M100.899 418C91.7096 445.607 91.2406 471.84 95.8991 534.5L103.899 467C106.347 443.69 105.977 432.627 100.899 418Z" fill="#1E8346"/>
<path d="M124.399 495C112.399 490.5 118.399 425.66 137.899 423.66C135.899 437 140.399 450.5 136.899 465C133.751 478.042 124.399 495 124.399 495Z" fill="#1E8346"/>
<path d="M125.399 498.5C120.027 515.985 118.289 524.209 115.899 538C112.731 519.143 112.976 507.77 115.899 486.5C117.885 492.179 119.497 495.075 125.399 498.5Z" fill="#1E8346"/>
<path d="M174.78 221.264C174.78 218.953 176.653 217.08 178.964 217.08H191.514C193.825 217.08 195.698 218.953 195.698 221.264V230.561C195.698 232.871 193.825 234.744 191.514 234.744H178.964C176.653 234.744 174.78 232.871 174.78 230.561V221.264Z" fill="#1E8346"/>
<path d="M174.78 242.182C174.78 239.871 176.653 237.998 178.964 237.998H191.514C193.825 237.998 195.698 239.871 195.698 242.182V251.478C195.698 253.789 193.825 255.662 191.514 255.662H178.964C176.653 255.662 174.78 253.789 174.78 251.478V242.182Z" fill="#1E8346"/>
<path d="M174.78 263.099C174.78 260.789 176.653 258.916 178.964 258.916H191.602C193.878 258.916 195.729 260.732 195.706 263.007C195.652 268.313 195.328 277.666 193.838 284.25C191.736 293.54 185.646 301.213 180.91 306.012C178.51 308.444 174.78 306.657 174.78 303.24V263.099Z" fill="#1E8346"/>
<path d="M174.78 199.557C174.78 197.706 176.32 196.242 178.154 196.496C181.651 196.98 187.002 198.133 189.887 200.811C192.254 203.007 193.83 207.034 194.736 210.029C195.326 211.98 193.814 213.826 191.777 213.826H178.034C176.237 213.826 174.78 212.37 174.78 210.573V199.557Z" fill="#1E8346"/>
<path d="M170.605 221.424C170.605 219.113 168.732 217.24 166.421 217.24H153.871C151.56 217.24 149.687 219.113 149.687 221.424V230.721C149.687 233.031 151.56 234.904 153.871 234.904H166.421C168.732 234.904 170.605 233.031 170.605 230.721V221.424Z" fill="#1E8346"/>
<path d="M170.605 242.342C170.605 240.031 168.732 238.158 166.421 238.158H153.871C151.56 238.158 149.687 240.031 149.687 242.342V251.638C149.687 253.949 151.56 255.822 153.871 255.822H166.421C168.732 255.822 170.605 253.949 170.605 251.638V242.342Z" fill="#1E8346"/>
<path d="M170.605 263.259C170.605 260.949 168.732 259.076 166.421 259.076H153.783C151.507 259.076 149.655 260.891 149.679 263.167C149.733 268.473 150.056 277.826 151.546 284.41C153.649 293.7 159.739 301.372 164.475 306.172C166.875 308.604 170.605 306.817 170.605 303.4V263.259Z" fill="#1E8346"/>
<path d="M170.605 199.717C170.605 197.866 169.064 196.402 167.231 196.656C163.734 197.14 158.383 198.292 155.497 200.971C153.131 203.167 151.555 207.194 150.649 210.189C150.059 212.139 151.57 213.986 153.608 213.986H167.351C169.148 213.986 170.605 212.529 170.605 210.732V199.717Z" fill="#1E8346"/>
<path d="M233.919 131.317C229.968 123.88 225.215 120.626 225.215 120.626C225.215 120.626 248.007 122.088 254.5 131.782C259.037 138.556 256.82 144.298 258.684 152.235C260.616 160.466 264.262 173.153 264.262 173.153C258.393 168.009 254.801 165.366 247.295 161.532C241.805 159.054 239.894 158.042 237.87 152.7C235.932 147.587 237.87 138.755 233.919 131.317Z" fill="#1E8346"/>
<path d="M262.17 175.477C271.829 191.735 266.818 220.334 258.451 232.188C241.019 215.686 229.113 194.293 231.49 181.752C233.341 171.991 236.211 166.25 236.603 156.884C238.778 161.226 256.606 166.114 262.17 175.477Z" fill="#1E8346"/>
<path d="M82.3866 176.284C72.53 191.397 77.6434 217.981 86.1812 229C103.968 213.66 116.118 193.774 113.692 182.117C111.803 173.043 108.875 167.706 108.474 159C106.255 163.037 88.0634 167.58 82.3866 176.284Z" fill="#1E8346"/>
<path d="M111.69 131.085C115.641 123.647 120.394 120.394 120.394 120.394C120.394 120.394 97.6014 121.855 91.1088 131.55C86.5721 138.324 88.789 144.066 86.9252 152.003C84.9925 160.233 81.3471 172.92 81.3471 172.92C87.2156 167.777 90.8074 165.134 98.3138 161.299C103.804 158.821 105.714 157.809 107.739 152.468C109.677 147.354 107.739 138.522 111.69 131.085Z" fill="#1E8346"/>
<path d="M262.635 233.117C262.635 233.117 265.656 227.307 268.445 218.707C281.121 248.305 285.431 267.946 289.828 306.562C289.828 306.562 281.268 288.078 274.721 276.812C269.18 267.278 259.381 253.105 259.381 253.105C259.381 253.105 256.127 247.76 257.987 242.879C259.846 237.998 262.635 233.117 262.635 233.117Z" fill="#1E8346"/>
<path d="M269.607 311.21C275.557 306.771 279.305 305.959 286.807 307.724C276.513 285.436 268.711 272.743 247.76 242.879C250.28 266.781 252.657 277.214 262.635 289.131C269.907 300.177 270.634 304.585 269.607 311.21Z" fill="#1E8346"/>
<path d="M83.4388 231.955C83.4388 231.955 80.4174 226.145 77.6283 217.545C64.9527 247.143 60.6428 266.783 56.2457 305.4C56.2457 305.4 64.8058 286.916 71.353 275.65C76.8937 266.116 86.6927 251.943 86.6927 251.943C86.6927 251.943 89.9465 246.598 88.0872 241.717C86.2279 236.836 83.4388 231.955 83.4388 231.955Z" fill="#1E8346"/>
<path d="M76.4663 310.048C70.5172 305.609 66.7686 304.797 59.2672 306.562C69.5609 284.273 77.363 271.58 98.3138 241.717C95.7937 265.619 93.4166 276.052 83.4388 287.968C76.1667 299.015 75.4398 303.423 76.4663 310.048Z" fill="#1E8346"/>
<path d="M179.196 189.887C176.734 189.395 175.607 187.856 174.315 185.703C171.526 181.055 174.547 145.96 174.547 145.96C174.547 145.96 175.833 135.525 180.126 130.387C184.979 124.58 189.772 124.407 197.092 122.485C203.909 120.695 208.946 120.161 215.918 120.626C220.671 120.943 224.518 124.345 226.842 127.599C229.166 130.852 229.864 131.317 231.723 135.501C233.582 139.684 233.607 143.23 233.815 148.284C234.093 155.044 234.028 159.122 231.723 165.483C229.655 171.191 227.747 174.308 223.588 178.731C221.264 181.203 215.67 185.953 209.411 188.26C202.402 190.843 197.555 190.279 189.887 190.352C185.708 190.392 181.52 190.352 179.196 189.887Z" fill="#1E8346"/>
<path d="M164.436 189.814C166.898 189.321 168.025 187.783 169.317 185.63C172.106 180.982 169.085 145.886 169.085 145.886C169.085 145.886 167.8 135.452 163.506 130.314C158.653 124.507 153.86 124.334 146.54 122.412C139.723 120.622 134.687 120.088 127.714 120.553C122.961 120.869 119.114 124.271 116.79 127.525C114.466 130.779 113.769 131.244 111.909 135.427C110.05 139.611 110.026 143.156 109.817 148.211C109.539 154.971 109.604 159.048 111.909 165.41C113.978 171.118 115.885 174.235 120.044 178.658C122.368 181.13 127.962 185.88 134.222 188.187C141.231 190.77 146.077 190.206 153.745 190.279C157.924 190.318 162.112 190.279 164.436 189.814Z" fill="#1E8346"/>
<path d="M196.163 105.751C193.165 98.7312 197.092 86.2278 197.092 86.2278C197.092 86.2278 189.943 95.9305 188.028 103.194C186.221 110.045 187.331 121.323 187.331 121.323C187.331 121.323 195.923 119.447 201.508 118.767C210.342 117.691 224.285 118.069 224.285 118.069C224.285 118.069 200.871 116.778 196.163 105.751Z" fill="#1E8346"/>
<path d="M149.446 105.983C152.443 98.9636 148.516 86.4602 148.516 86.4602C148.516 86.4602 155.665 96.1629 157.581 103.427C159.387 110.278 158.278 121.556 158.278 121.556C158.278 121.556 149.685 119.679 144.1 118.999C135.267 117.923 121.323 118.302 121.323 118.302C121.323 118.302 144.738 117.01 149.446 105.983Z" fill="#1E8346"/>
<path d="M207.5 279C212 277.5 215.659 275.112 217 272.5C218.341 269.888 225.054 213.007 211 192.5C206.5 187 199.807 197.664 199.5 213C199.5 213 203.435 234.27 203 248C202.67 258.434 199 265 199.5 274.5C199.606 276.508 202 279 202 279C202 279 203 280.5 207.5 279Z" fill="#1E8346"/>
<path d="M137.276 278.966C132.776 277.466 129.118 275.078 127.776 272.466C126.435 269.854 119.722 212.973 133.776 192.466C138.276 186.966 144.969 197.63 145.276 212.966C145.276 212.966 141.342 234.236 141.776 247.966C142.107 258.4 145.776 264.966 145.276 274.466C145.171 276.474 142.776 278.966 142.776 278.966C142.776 278.966 141.776 280.466 137.276 278.966Z" fill="#1E8346"/>
</svg>
